# xmcd
#
# Track frame offsets:
#	150
#	44688
#	61210
#	76788
#	100030
#	132091
#	150082
#	158618
#	190494
#	201219
#	217369
#	230134
#	244252
#	255741
#	267065
#	280338
#
# Disc length: 3918 seconds
#
# Revision: 0
# Processed by: cddbd v1.5.1PL0 Copyright (c) Steve Scherf et al.
# Submitted via: audiograbber 1.82.01
#
DISCID=e10f4c10
DTITLE=Various Artist - Blues Guitar Heroes Vol 2
DYEAR=2000
DGENRE=Blues
TTITLE0=Santana - Jingo
TTITLE1=Howlin' Wolf - Shake It For Me
TTITLE2=Bo Diddley - Roadrunner
TTITLE3=Buddy Guy and Junior Wells - Stormy Monday
TTITLE4=Santana - Every Day I Have The Blues
TTITLE5=John Lee Hooker - House Rent Boogie
TTITLE6=B.B. King - A New Way Of Driving
TTITLE7=Howlin' Wolf - Forty Four
TTITLE8=Lightnin' Hopkins - I'm Wit' It
TTITLE9=Buddy Guy and Junior Wells - (I can't get no) Satisfaction
TTITLE10=John Lee Hooker - She Shot Me Down
TTITLE11=Howlin' Wolf - Rockin' The Blues
TTITLE12=Santana - Acapulco Sunrise
TTITLE13=Blind Boy Fuller and Sonny Terry - Mean And No-Good Woman Blues
TTITLE14=Muddy Waters - Hoochie Coochie Man
TTITLE15=T-Bone Walker - Stormy Monday
EXTD=Disk 2 of 3
EXTT0=
EXTT1=
EXTT2=
EXTT3=
EXTT4=
EXTT5=
EXTT6=
EXTT7=
EXTT8=
EXTT9=
EXTT10=
EXTT11=
EXTT12=
EXTT13=
EXTT14=
EXTT15=
PLAYORDER=
